# xmcd
#
# Track frame offsets: 
#        150
#        21000
#        39485
#        61332
#        68250
#        85665
#        104693
#        127983
#        145249
#
# Disc length: 2291 seconds
#
# Revision: 6
# Processed by: cddbd v1.5.2PL0 Copyright (c) Steve Scherf et al.
# Submitted via: ExactAudioCopy v1.0b1
#
DISCID=6e08f109
DTITLE=Tomatito - Paseo de los Castaños
DYEAR=1900
DGENRE=
TTITLE0=Pa la Pimpi (Tangos)
TTITLE1=Alquimia (Soleá)
TTITLE2=Paseo de los Castaños (Bulería)
TTITLE3=Aire de Tango (Bolero)
TTITLE4=La Vacilona (Rumba)
TTITLE5=Macael (Taranta)
TTITLE6=Dulce manantial (Bulería)
TTITLE7=Bir Ömürlük Misafir (Canción turca)
TTITLE8=Ahí te quedas (Bulería)
EXTD=
EXTT0=
EXTT1=
EXTT2=
EXTT3=
EXTT4=
EXTT5=
EXTT6=
EXTT7=
EXTT8=
PLAYORDER=
